<svg width="24" height="24" viewBox="0 0 24 24" fill="none" xmlns="http://www.w3.org/2000/svg">
<path d="M15 22H9C4 22 2 20 2 15V9C2 4 4 2 9 2H15C20 2 22 4 22 9V15C22 20 20 22 15 22Z" fill="#5AC64C" stroke="black" stroke-width="1.5" stroke-linecap="round" stroke-linejoin="round"/>
<path d="M12.0301 6H10.0451C8.90226 6 8 6.90452 8 7.98995C8 9.07538 8.90226 9.9799 9.98496 9.9799H12.0301M12.0301 6V9.9799M12.0301 6H14.015C15.0977 6 16 6.90452 16 7.98995C16 9.07538 15.0977 9.9799 14.015 9.9799H12.0301M10.0451 14.0201C8.96241 14.0201 8.06015 13.1156 8.06015 12.0302C8.06015 10.9447 8.96241 10.0402 10.0451 10.0402H12.0301V14.0201M10.0451 14.0201H12.0301M10.0451 14.0201C8.96241 14.0201 8.06015 14.9246 8.06015 16.0101C8.06015 17.0955 8.96241 18 10.0451 18C11.1278 18 12.0301 17.0955 12.0301 16.0101V14.0201M14.015 10.0402C15.0977 10.0402 16 10.9447 16 12.0302C16 13.1156 15.0977 14.0201 14.015 14.0201C12.9323 14.0201 12.0301 13.1156 12.0301 12.0302C12.0301 10.9447 12.9323 10.0402 14.015 10.0402Z" stroke="black" stroke-width="1.5" stroke-miterlimit="10"/>
</svg>
