<svg width="34" height="34" viewBox="0 0 34 34" fill="none" xmlns="http://www.w3.org/2000/svg">
<path d="M20 27H14C9 27 7 25 7 20V14C7 9 9 7 14 7H20C25 7 27 9 27 14V20C27 25 25 27 20 27Z" fill="#89FFE3" stroke="black" stroke-width="1.5" stroke-linecap="round" stroke-linejoin="round"/>
<path d="M15.3903 17.3747C15.3903 19.2745 15.526 20.8708 14.5886 21.8155C14.0614 22.347 13.2295 22.6601 12.2059 22.6601C10.5271 22.6601 9.59495 21.8422 9 20.7105C9.57276 20.3448 10.1581 19.9913 10.7547 19.6492C10.9981 20.3299 11.8199 21.0952 12.7475 20.6241C13.3353 20.3253 13.2675 19.4194 13.2675 18.4361C13.2675 16.3946 13.2675 14.0394 13.2675 12.1975C13.2656 12.1669 13.2638 12.1362 13.289 12.1325C13.9895 12.1325 14.69 12.1325 15.3903 12.1325C15.3903 13.7733 15.3903 15.6295 15.3903 17.3747ZM20.719 16.1401C20.1834 15.9107 19.5176 15.6394 19.3544 15.1435C19.1714 14.5877 19.4834 14.1298 19.8308 13.974C20.5947 13.6309 21.5051 14.1958 21.6937 14.7754C22.2686 14.4332 22.8416 14.0889 23.3618 13.6923C22.7505 12.6771 21.8544 11.9504 20.2208 12.0027C19.3214 12.0314 18.6458 12.3153 18.1413 12.7391C17.649 13.1525 17.2689 13.7329 17.2097 14.5587C17.0329 17.0307 18.8826 17.6617 20.4591 18.3495C20.9561 18.5662 21.5085 18.7851 21.7372 19.2159C22.2086 20.1048 21.3735 20.6913 20.6541 20.754C19.4994 20.8546 18.7208 20.179 18.2712 19.4759C17.7096 19.824 17.0989 20.123 16.5599 20.494C17.3096 21.8122 18.5387 22.6656 20.4591 22.6601C22.4182 22.6546 23.8706 21.7101 23.9899 19.9309C24.152 17.5125 22.3402 16.8341 20.719 16.1401Z" fill="black"/>
</svg>
