<svg width="25" height="25" viewBox="0 0 25 25" fill="none" xmlns="http://www.w3.org/2000/svg">
<g clip-path="url(#clip0_302_51)">
<path d="M16 22H10C5 22 3 20 3 15V9C3 4 5 2 10 2H16C21 2 23 4 23 9V15C23 20 21 22 16 22Z" fill="#7FFFDC" stroke="black" stroke-width="1.5" stroke-linecap="round" stroke-linejoin="round"/>
<path d="M6.30556 9.73508H8.75272C9.47098 9.74075 9.99125 9.94648 10.314 10.3528C10.6363 10.7586 10.743 11.3129 10.6337 12.0152C10.5889 12.3431 10.4932 12.6619 10.3501 12.9603C10.2104 13.2697 10.0155 13.5481 9.76592 13.7961C9.4617 14.1107 9.13634 14.3112 8.78933 14.3958C8.43652 14.4814 8.0747 14.5241 7.71167 14.5232H6.61597L6.26895 16.2495H5L6.30556 9.73508ZM7.37394 10.7705L6.82531 13.4966C6.86192 13.5022 6.89853 13.5053 6.93514 13.5053H7.06302C7.64722 13.5115 8.13448 13.4538 8.52378 13.3326C8.91359 13.2057 9.17502 12.7633 9.30908 12.0064C9.41839 11.3701 9.30908 11.004 8.98011 10.9071C8.65784 10.8102 8.25308 10.7648 7.76581 10.7705C7.69602 10.7764 7.626 10.7795 7.55595 10.7797H7.36414L7.37394 10.7705ZM12.0795 8H13.3397L12.9834 9.73559H14.1157C14.7365 9.74745 15.1991 9.87481 15.5033 10.1172C15.8137 10.3595 15.9055 10.8194 15.7776 11.498L15.1655 14.5237H13.8873L14.4715 11.6341C14.5324 11.3315 14.5143 11.1164 14.4169 10.9896C14.3194 10.8622 14.1095 10.7988 13.7868 10.7988L12.7736 10.7895L12.0249 14.5237H10.7647L12.0795 8ZM17.1306 9.73508H19.5772C20.2955 9.74075 20.8163 9.94648 21.1385 10.3528C21.4613 10.7586 21.5681 11.3129 21.4582 12.0152C21.4136 12.343 21.3181 12.6619 21.1752 12.9603C21.0354 13.2697 20.8405 13.5481 20.591 13.7961C20.2867 14.1107 19.9609 14.3112 19.6138 14.3958C19.261 14.4814 18.8992 14.5241 18.5362 14.5232H17.441L17.094 16.2495H15.825L17.1306 9.73508ZM18.199 10.7705L17.6509 13.4966C17.6875 13.5022 17.7241 13.5053 17.7607 13.5053H17.8886C18.4728 13.5115 18.9595 13.4538 19.3493 13.3326C19.7386 13.2057 20.0006 12.7633 20.1346 12.0064C20.2439 11.3701 20.1346 11.004 19.8057 10.9071C19.4834 10.8102 19.0786 10.7648 18.5914 10.7705C18.5216 10.7764 18.4516 10.7795 18.3815 10.7797H18.1897L18.199 10.7705Z" fill="black"/>
</g>
<defs>
<clipPath id="clip0_302_51">
<rect width="25" height="25" fill="white"/>
</clipPath>
</defs>
</svg>
