<svg width="24" height="24" viewBox="0 0 24 24" fill="none" xmlns="http://www.w3.org/2000/svg">
<path d="M15 22H9C4 22 2 20 2 15V9C2 4 4 2 9 2H15C20 2 22 4 22 9V15C22 20 20 22 15 22Z" fill="#D493FF" stroke="black" stroke-width="1.5" stroke-linecap="round" stroke-linejoin="round"/>
<path d="M9 9.64713V7.24813C9 6.72943 9.34091 6.27556 9.79545 6.14589C10.9318 5.95137 12.0682 5.95137 13.2045 6.14589C13.6591 6.21072 14 6.66459 14 7.24813V11.0736C14 11.8516 13.4318 12.5 12.75 12.5H10.25C9.56818 12.5 9 13.1484 9 13.9264V17.7519C9 18.2706 9.34091 18.7244 9.79545 18.8541C10.9318 19.0486 12.0682 19.0486 13.2045 18.8541C13.6591 18.7893 14 18.3354 14 17.7519V15.3529" stroke="black" stroke-width="1.5" stroke-linecap="round" stroke-linejoin="round"/>
<path d="M14.3529 10H16.7519C17.2706 10 17.7244 10.3409 17.8541 10.7955C18.0486 11.9318 18.0486 13.0682 17.8541 14.2045C17.7893 14.6591 17.3354 15 16.7519 15H11.5M11.5 10H6.24813C5.72943 10 5.27556 10.3409 5.14589 10.7955C4.95137 11.9318 4.95137 13.0682 5.14589 14.2045C5.21072 14.6591 5.66459 15 6.24813 15H8.64713" stroke="black" stroke-width="1.5" stroke-linecap="round" stroke-linejoin="round"/>
</svg>
