<svg width="25" height="25" viewBox="0 0 25 25" fill="none" xmlns="http://www.w3.org/2000/svg">
<path d="M16 23H10C5 23 3 21 3 16V10C3 5 5 3 10 3H16C21 3 23 5 23 10V16C23 21 21 23 16 23Z" fill="#F54574" stroke="black" stroke-width="1.5" stroke-linecap="round" stroke-linejoin="round"/>
<path d="M13 15C14.1046 15 15 14.1046 15 13C15 11.8954 14.1046 11 13 11C11.8954 11 11 11.8954 11 13C11 14.1046 11.8954 15 13 15Z" fill="black"/>
<path d="M8.50652 16L8.15136 15.9147C5.51326 15.2891 4 14.2252 4 13C4 11.774 5.51416 10.7109 8.15136 10.0853L8.50652 10.0008L8.60632 10.331C8.87296 11.1954 9.21458 12.0377 9.62775 12.8497L9.70418 13L9.62775 13.1503C9.21415 13.9634 8.87157 14.8061 8.60632 15.6707L8.50652 16ZM7.98771 10.8536C5.98352 11.3839 4.75258 12.1928 4.75258 13C4.75258 13.8055 5.98262 14.6153 7.98771 15.1447C8.23318 14.4118 8.5299 13.6949 8.87337 13C8.52741 12.3039 8.23153 11.5869 7.98771 10.8536ZM17.4935 16L17.3946 15.669C17.1272 14.8045 16.7853 13.9618 16.3722 13.1495L16.2958 13L16.3722 12.8489C16.7859 12.0374 17.1266 11.1939 17.3946 10.3293L17.4935 10L17.8486 10.0844C20.4876 10.7101 22 11.7731 22 13C22 14.226 20.4867 15.2891 17.8486 15.9147L17.4935 16ZM17.1248 13C17.4845 13.7312 17.7839 14.4506 18.0123 15.1447C20.0174 14.6153 21.2483 13.8055 21.2483 13C21.2483 12.1928 20.0183 11.3847 18.0123 10.8536C17.7671 11.5867 17.4706 12.3037 17.1248 13Z" fill="black"/>
<path d="M8.5253 10.7097L8.42723 10.3594C7.69079 7.74713 7.91368 5.87596 9.03974 5.2238C10.1408 4.58151 11.9124 5.34058 13.7678 7.25845L14.021 7.52076L13.7678 7.78216C13.1088 8.47268 12.5065 9.21592 11.9668 10.0046L11.866 10.1501L11.6913 10.1645C10.7423 10.2396 9.80093 10.3925 8.87658 10.6217L8.5253 10.7097ZM9.93577 5.74301C9.73606 5.74301 9.55953 5.78703 9.41064 5.87327C8.67241 6.30176 8.54224 7.79384 9.05044 9.80784C9.84483 9.63087 10.6464 9.50421 11.4541 9.43325C11.9218 8.76496 12.4319 8.12792 12.9814 7.52615C11.8197 6.388 10.723 5.74301 9.93577 5.74301ZM17.0657 20.9998C16.0065 20.9998 14.646 20.1949 13.2337 18.7343L12.9814 18.4729L13.2337 18.2124C13.8928 17.5207 14.4954 16.7766 15.0356 15.9873L15.1354 15.8435L15.3084 15.8265C16.2577 15.7527 17.1994 15.6004 18.124 15.371L18.4762 15.2812L18.5751 15.6324C19.308 18.2429 19.086 20.1168 17.9617 20.7689C17.6887 20.9248 17.3794 21.0045 17.0657 20.9998ZM14.021 18.4666C15.1818 19.6047 16.2793 20.2506 17.0657 20.2506C17.2663 20.2506 17.4428 20.2057 17.5908 20.1204C18.3299 19.691 18.461 18.1962 17.951 16.1822C17.1575 16.3601 16.3551 16.4876 15.5456 16.5586C15.0799 17.2279 14.5706 17.8653 14.021 18.4666Z" fill="black"/>
<path d="M18.4748 10.7094L18.1227 10.6205C17.1983 10.3906 16.2568 10.2376 15.3075 10.1632L15.1346 10.148L15.0347 10.0024C14.4954 9.21334 13.8928 8.47003 13.2331 7.77997L12.9809 7.51856L13.2331 7.25804C15.0873 5.341 16.8577 4.58191 17.9605 5.22332C19.0855 5.87641 19.3092 7.74763 18.5738 10.3591L18.4748 10.7094ZM15.5446 9.4329C16.3951 9.50926 17.2009 9.63772 17.9498 9.80751C18.4588 7.79345 18.3286 6.30132 17.5896 5.87192C16.8551 5.44341 15.4724 6.09919 14.0203 7.52574C14.5694 8.12763 15.0793 8.76364 15.5446 9.4329ZM9.93569 20.9998C9.62202 21.0043 9.31281 20.9246 9.03979 20.7689C7.9139 20.1168 7.69104 18.2437 8.42648 15.6323L8.52276 15.281L8.87488 15.3709C9.73423 15.5892 10.6809 15.7428 11.6901 15.8263L11.863 15.8434L11.9637 15.9871C12.5022 16.7759 13.1048 17.5206 13.7644 18.2123L14.0176 18.4728L13.7644 18.7342C12.3533 20.1958 10.9929 20.9998 9.93569 20.9998ZM9.05049 16.183C8.54237 18.197 8.67252 19.6918 9.41063 20.1212C10.1461 20.5435 11.5242 19.8922 12.9809 18.4665C12.4317 17.8645 11.9216 17.2275 11.4538 16.5594C10.6454 16.4873 9.84251 16.3616 9.05049 16.183Z" fill="black"/>
<path d="M13.0009 17C12.402 17 11.7875 16.9715 11.1704 16.9136L10.9996 16.8969L10.9011 16.7377C10.5531 16.1738 10.2256 15.5942 9.91959 15.0002C9.61581 14.4046 9.33346 13.7954 9.07322 13.1742L9 13.0004L9.07322 12.8245C9.33384 12.2038 9.61538 11.5948 9.91959 10.9996C10.2221 10.4142 10.5524 9.82876 10.9011 9.26103L10.9996 9.10387L11.1704 9.08619C12.388 8.97127 13.612 8.97127 14.8296 9.08619L14.9987 9.10485L15.0972 9.26201C15.7943 10.3903 16.4066 11.5823 16.9277 12.8255L17 13.0014L16.9277 13.1752C16.4081 14.4193 15.7957 15.6114 15.0972 16.7387L14.9987 16.8978L14.8296 16.9145C14.2142 16.9705 13.5988 17 13.0009 17ZM11.4023 16.1121C12.4788 16.2034 13.523 16.2034 14.5986 16.1121C15.1991 15.1212 15.7329 14.0811 16.1955 13.0004C15.7345 11.9187 15.2006 10.8784 14.5986 9.88867C13.5347 9.79634 12.4661 9.79634 11.4023 9.88867C10.7997 10.8781 10.2659 11.9184 9.8054 13.0004C10.269 14.0805 10.8028 15.1205 11.4023 16.1121Z" fill="black"/>
</svg>
