<svg width="24" height="24" viewBox="0 0 24 24" fill="none" xmlns="http://www.w3.org/2000/svg">
<path d="M15 22H9C4 22 2 20 2 15V9C2 4 4 2 9 2H15C20 2 22 4 22 9V15C22 20 20 22 15 22Z" fill="#FFA0C8" stroke="black" stroke-width="1.5" stroke-linecap="round" stroke-linejoin="round"/>
<path fill-rule="evenodd" clip-rule="evenodd" d="M15.3699 4.10783C16.2929 4.28335 17.2187 4.71485 17.6676 5.60269C18.1301 6.51749 18.0816 7.40762 17.6971 8.15703C17.3336 8.86546 16.7006 9.39492 16.0626 9.75063C15.4199 10.1089 14.6956 10.3343 14.0605 10.3784C13.7444 10.4004 13.412 10.3802 13.11 10.279C12.8061 10.1771 12.4717 9.96937 12.2864 9.5794C12.1097 9.20788 12.2565 8.75798 12.6142 8.57452C12.9498 8.40246 13.3517 8.52588 13.5461 8.84837C13.5484 8.84922 13.551 8.85011 13.5537 8.85103C13.625 8.87493 13.7602 8.89549 13.964 8.88132C14.3691 8.85317 14.8949 8.69863 15.3791 8.42863C15.868 8.15604 16.2386 7.80882 16.422 7.45143C16.5843 7.13502 16.6259 6.77019 16.3883 6.30016C16.2436 6.01371 15.8555 5.72559 15.1097 5.58377C14.3887 5.44664 13.4738 5.4786 12.5346 5.68149C11.5978 5.88386 10.6829 6.24644 9.95757 6.72934C9.22518 7.21696 8.74784 7.78423 8.56442 8.37214C8.36603 9.00809 8.43635 9.4557 8.615 9.82333C8.81097 10.2266 9.16989 10.6 9.66479 10.9999C9.90432 11.1934 10.1586 11.3801 10.4267 11.5769L10.4412 11.5876C10.7091 11.7842 10.9919 11.9921 11.2562 12.2089C11.4788 12.3914 11.7062 12.594 11.9144 12.8219C12.8487 12.6348 13.6582 12.6551 14.3215 12.9702C15.1756 13.3759 15.6038 14.1753 15.8052 15.0802C15.8951 15.4839 15.6528 15.8868 15.264 15.9801C14.8753 16.0734 14.4874 15.8218 14.3975 15.4181C14.2529 14.7685 14.0167 14.4754 13.7206 14.3347C13.5035 14.2317 13.1793 14.1729 12.6967 14.2185C13.1417 15.8429 12.3648 17.3141 11.4136 18.1475C10.9011 18.5964 10.2738 18.9236 9.64672 18.9886C8.99083 19.0566 8.29009 18.8282 7.8789 18.1171C7.51578 17.4892 7.5129 16.8216 7.70231 16.2271C7.88453 15.6552 8.24444 15.1403 8.63874 14.7142C9.1343 14.1785 9.75762 13.7056 10.3488 13.3766C10.1226 13.1918 9.87508 13.0094 9.60722 12.8128L9.58161 12.794C9.32175 12.6033 9.04373 12.3992 8.77761 12.1842C8.23502 11.7458 7.6685 11.2059 7.32512 10.4994C6.96444 9.75716 6.8815 8.89833 7.18993 7.90967C7.51336 6.87295 8.28487 6.06066 9.17778 5.46617C10.0778 4.86696 11.1645 4.44489 12.2404 4.21246C13.3137 3.98058 14.4223 3.9276 15.3699 4.10783ZM11.2884 14.5664C10.8021 14.7956 10.1696 15.2253 9.68059 15.7537C9.37024 16.0893 9.16403 16.4158 9.07401 16.6984C8.99115 16.9585 9.00988 17.1584 9.11752 17.3446C9.1771 17.4476 9.26839 17.5199 9.5032 17.4955C9.76682 17.4682 10.1288 17.31 10.4819 17.0006C11.1576 16.4086 11.5667 15.4929 11.2884 14.5664ZM13.5208 8.83753L13.522 8.83825L13.5208 8.83753Z" fill="black"/>
</svg>
